# xmcd
#
# Track frame offsets:
#	150
#	17329
#	31204
#	48433
#	62675
#	80695
#	96771
#	109559
#	122438
#	134916
#	151373
#	165594
#	181241
#	201043
#	217937
#
# Disc length: 3118 seconds
#
# Revision: 1
# Processed by: cddbd v1.5.1PL0 Copyright (c) Steve Scherf et al.
# Submitted via: audiograbber 1.83.01
#
DISCID=be0c2c0f
DTITLE=Hot Hits - CB60149
DYEAR=1900
DGENRE=Kataoke
TTITLE0=CB60149-01 - Greenwood, Lee - Ain't No Trick It Takes Magic
TTITLE1=CB60149-02 - Greenwood, Lee - Between A Rock And A Hard Place
TTITLE2=CB60149-03 - Greenwood, Lee - Somebody's Gonna Love You
TTITLE3=CB60149-04 - Greenwood, Lee - We've Got It Made
TTITLE4=CB60149-05 - Greenwood, Lee - I Still Believe
TTITLE5=CB60149-06 - Rogers, Kenny - Vows Go Unbroken, The
TTITLE6=CB60149-07 - Oak Ridge Boys, The - American Made
TTITLE7=CB60149-08 - Oak Ridge Boys, The - No Matter How High
TTITLE8=CB60149-09 - Oak Ridge Boys, The - Thank God For Kids
TTITLE9=CB60149-10 - Oak Ridge Boys, The - Lucky Moon
TTITLE10=CB60149-11 - Gosdin, Vern - Is It Raining At Your House
TTITLE11=CB60149-12 - Gosdin, Vern - Garden, The
TTITLE12=CB60149-13 - Nelson, Willie - Stardust
TTITLE13=CB60149-14 - Travis, Randy and G. Jones - Few Good Ole Country Boys, A
TTITLE14=CB60149-15 - Campbell, Glen - I Have You
EXTD=
EXTT0=
EXTT1=
EXTT2=
EXTT3=
EXTT4=
EXTT5=
EXTT6=
EXTT7=
EXTT8=
EXTT9=
EXTT10=
EXTT11=
EXTT12=
EXTT13=
EXTT14=
PLAYORDER=
